<?xml version="1.0" encoding="iso-8859-1"?>
<!-- Generator: Adobe Illustrator 19.0.0, SVG Export Plug-In . SVG Version: 6.00 Build 0)  -->
<svg version="1.1" id="Capa_1" xmlns="http://www.w3.org/2000/svg" xmlns:xlink="http://www.w3.org/1999/xlink" x="0px" y="0px"
	 viewBox="0 0 496.941 496.941" style="enable-background:new 0 0 496.941 496.941;" xml:space="preserve">
<g>
	<g>
		<g>
			<path d="M196.894,334.306c0,28.612,22.588,51.2,51.2,51.2s51.2-22.588,51.2-51.2s-23.341-51.2-51.2-51.2
				S196.894,305.694,196.894,334.306z M284.235,334.306c0,20.329-16.565,36.141-36.141,36.141s-36.141-15.812-36.141-36.141
				c0-20.329,15.812-36.141,36.141-36.141C267.671,298.165,284.235,313.976,284.235,334.306z"/>
			<path d="M296.282,386.259h-96.376c-21.082,0-37.647,17.318-37.647,37.647v46.682c0,4.518,3.012,7.529,7.529,7.529h157.365
				c4.518,0,7.529-3.012,7.529-7.529v-46.682C333.929,402.824,317.365,386.259,296.282,386.259z M318.871,463.059H177.318v-39.153
				c0-12.8,10.541-22.588,22.588-22.588h96.376c12.8,0,22.588,10.541,22.588,22.588V463.059z"/>
			<path d="M103.529,420.894H85.459c16.565-6.023,27.859-21.082,27.859-39.906c0-23.341-18.823-42.165-42.165-42.165
				s-42.165,18.824-42.165,42.165c0,18.071,12.047,33.882,27.859,39.906H38.023c-21.082,0-37.647,17.318-37.647,37.647v30.871
				c0,4.518,3.012,7.529,7.529,7.529h125.741c4.518,0,7.529-3.012,7.529-7.529v-30.871
				C141.176,437.459,123.859,420.894,103.529,420.894z M43.294,380.988c0-15.059,12.047-27.106,27.106-27.106
				c15.059,0,27.106,12.047,27.106,27.106S85.459,408.094,70.4,408.094C56.094,408.094,43.294,396.047,43.294,380.988z
				 M15.435,481.882v-23.341c0-12.8,10.541-22.588,22.588-22.588h64.753c12.8,0,22.588,10.541,22.588,22.588v23.341H15.435z"/>
			<path d="M458.165,420.894h-18.071c16.565-6.023,27.859-21.082,27.859-39.906c0-23.341-18.824-42.165-42.165-42.165
				c-23.341,0-42.165,18.824-42.165,42.165c0,18.071,12.047,33.882,27.859,39.906h-18.071c-21.082,0-37.647,17.318-37.647,37.647
				v30.871c0,4.518,3.012,7.529,7.529,7.529h125.741c4.518,0,7.529-3.012,7.529-7.529v-30.871
				C495.812,437.459,478.494,420.894,458.165,420.894z M397.929,380.988c0-15.059,12.047-27.106,27.106-27.106
				s27.106,12.047,27.106,27.106s-12.047,27.106-27.106,27.106S397.929,396.047,397.929,380.988z M370.071,481.882v-23.341
				c0-12.8,10.541-22.588,22.588-22.588h64.753c12.8,0,22.588,10.541,22.588,22.588v23.341H370.071z"/>
			<path d="M25.976,346.353c4.518,0,7.529-3.012,7.529-7.529c0-21.082,29.365-42.165,79.812-56.471
				c27.859-8.282,57.224-12.8,86.588-15.059C332.424,256,462.682,293.647,462.682,338.824c0,4.518,3.012,7.529,7.529,7.529
				s7.529-3.012,7.529-7.529c0-27.106-29.365-51.2-80.565-67.765c1.506-2.259,3.012-4.518,4.518-7.529c0,0,0-0.753,0.753-0.753
				c15.059-26.353,22.588-55.718,22.588-86.588c0-0.753,0-0.753,0-1.506c0,0,0,0,0-0.753C423.529,80.565,348.235,1.506,250.353,0
				c-1.506,0-3.012,0-4.518,0C147.953,1.506,72.659,80.565,71.906,173.929c0,0.753,0,0.753,0,1.506
				c0,30.118,7.529,60.235,22.588,86.588c0,0,0,0,0,0.753c0,0,0,0,0,0.753c1.506,2.259,3.012,4.518,4.518,7.529
				c-51.2,16.565-80.565,40.659-80.565,67.765C18.447,342.588,22.212,346.353,25.976,346.353z M293.271,252.235
				c-29.365-2.259-61.741-2.259-91.106,0c-3.765-21.835-6.023-45.929-6.776-70.023h104.659
				C300.047,207.059,297.788,230.4,293.271,252.235z M196.141,166.4c0.753-24.847,3.012-48.941,6.776-70.024h90.353
				c4.518,21.835,6.776,45.176,6.776,70.024H196.141z M388.141,256c-1.506,3.012-3.765,6.776-6.776,10.541
				c-21.835-6.024-45.929-10.541-73.035-12.8c3.765-22.588,6.023-46.682,6.776-71.529h94.118
				C408.471,207.812,400.941,233.412,388.141,256z M409.224,166.4h-94.118c-0.753-24.847-3.012-48.941-6.776-70.024h79.812
				C400.188,118.212,407.718,142.306,409.224,166.4z M378.353,81.318h-73.035c-6.776-27.859-15.812-49.694-26.353-63.247
				C318.871,25.6,354.259,48.188,378.353,81.318z M246.588,15.059c0.753,0,0.753,0,1.506,0s0.753,0,1.506,0
				c15.059,1.506,30.871,27.106,40.659,66.259h-84.329C215.718,42.165,231.529,16.565,246.588,15.059z M217.224,18.071
				c-10.541,13.553-20.329,35.388-26.353,63.247h-73.035C141.929,48.188,177.318,25.6,217.224,18.071z M108.047,96.376h79.812
				c-3.765,21.835-6.023,45.929-6.776,70.024H86.965C88.471,142.306,96,118.212,108.047,96.376z M86.965,182.212h94.118
				c0,24.847,2.259,48.941,6.776,71.529c-26.353,3.012-50.447,6.776-73.035,12.8c-3.012-3.765-5.271-6.776-6.776-10.541
				C95.247,233.412,87.718,207.812,86.965,182.212z"/>
		</g>
	</g>
</g>
<g>
</g>
<g>
</g>
<g>
</g>
<g>
</g>
<g>
</g>
<g>
</g>
<g>
</g>
<g>
</g>
<g>
</g>
<g>
</g>
<g>
</g>
<g>
</g>
<g>
</g>
<g>
</g>
<g>
</g>
</svg>
